<svg width="102" height="30" viewBox="0 0 102 30" fill="none" xmlns="http://www.w3.org/2000/svg">
<path fill-rule="evenodd" clip-rule="evenodd" d="M94.3181 1.35574C91.621 1.68052 89.6587 3.20783 88.7155 5.71634C88.1471 7.2278 87.9837 9.29509 88.3057 10.8998C89.0294 14.5067 91.9539 16.8083 95.4826 16.5483C96.1854 16.4965 96.7244 16.3944 97.3177 16.2008C99.8974 15.3592 101.578 13.0938 101.947 9.95957C101.978 9.69211 102.004 9.13993 102.004 8.73255C102.004 7.26266 101.764 6.16341 101.191 4.99894C100.269 3.12842 98.6499 1.87768 96.5915 1.44684C96.2052 1.366 95.9903 1.34633 95.3661 1.33472C94.9498 1.32701 94.4782 1.33646 94.3181 1.35574ZM35.1652 1.83051C34.6181 4.95166 34.0365 11.1562 34.0358 13.8772C34.0356 14.7673 34.0647 14.9841 34.2313 15.335C34.4338 15.7617 34.7446 16.0355 35.2227 16.2085C35.4191 16.2795 35.5599 16.2942 36.192 16.309L36.9315 16.3264L36.9789 14.558C37.0659 11.3158 37.2207 8.69225 37.436 6.81162C37.5864 5.4977 37.5483 5.55555 37.8161 6.23426C38.167 7.12336 38.235 7.31646 39.4582 10.8998C40.0881 12.7452 40.6792 14.4154 40.7715 14.6113C41.1151 15.3397 41.5649 15.853 42.0802 16.1044C42.4401 16.2801 42.6902 16.3236 43.2605 16.3101L43.7204 16.2992L43.9211 15.9714C44.3804 15.2208 44.6494 14.5216 45.642 11.4976C46.9734 7.44104 47.1562 6.90194 47.3909 6.33878C47.5259 6.01512 47.6484 5.76347 47.6631 5.77955C47.7847 5.91211 48.1227 10.7991 48.2034 13.5892C48.2392 14.8289 48.2587 14.9829 48.4279 15.3629C48.52 15.5699 48.8146 15.9002 49.0255 16.0331C49.3652 16.247 49.5989 16.2918 50.4711 16.3103L51.283 16.3275L51.2578 15.1563C51.1992 12.4262 50.8626 7.2364 50.5891 4.84467C50.4752 3.84909 50.1889 3.04072 49.7697 2.53062C49.3949 2.07472 48.8145 1.73532 48.2257 1.62779C48.0991 1.60465 47.8189 1.58572 47.6032 1.58572H47.211L47.0328 1.76892C46.4521 2.36606 45.7704 3.5812 45.2532 4.94109C44.9282 5.79548 43.0646 11.5127 42.8897 12.1918C42.8487 12.3509 42.8059 12.455 42.7945 12.4232C42.7832 12.3914 42.7194 12.1583 42.6528 11.9053C42.5862 11.6522 42.4785 11.2791 42.4134 11.0761C42.2078 10.4344 39.8933 3.96846 39.7807 3.72093C39.3898 2.86238 38.5819 2.16689 37.5919 1.83672C37.0538 1.65722 36.804 1.61993 35.991 1.59764L35.2098 1.57619L35.1652 1.83051ZM56.6372 1.64411C55.9543 1.79151 55.4808 2.2721 55.232 3.07057C55.0803 3.55733 54.9296 4.77078 54.8417 6.21382C54.7897 7.06836 54.7911 11.2032 54.8437 11.6823C55.0027 13.1326 55.4987 14.2767 56.3031 15.0487C56.6776 15.408 56.9843 15.6163 57.4953 15.8581C58.4846 16.3263 59.47 16.4619 61.5955 16.4221C62.8371 16.3989 63.2423 16.3641 63.7416 16.2381C64.1805 16.1274 64.458 15.9842 64.7042 15.7412C65.037 15.413 65.0901 15.2371 65.1339 14.3176C65.1535 13.9065 65.161 13.5617 65.1506 13.5514C65.1402 13.541 64.9343 13.5694 64.6931 13.6143C63.7315 13.7936 63.223 13.8282 61.5373 13.8291C60.0455 13.8299 59.922 13.8247 59.5652 13.7463C58.2366 13.4543 57.8332 12.7322 57.831 10.6422L57.8303 9.99902L60.0526 9.98318C62.3747 9.96659 62.4412 9.962 62.845 9.79026C63.0613 9.69828 63.3225 9.43741 63.4245 9.21155C63.5097 9.02311 63.5156 8.96218 63.5163 8.27718L63.517 7.5444L60.6678 7.53449L57.8186 7.52461L57.8457 6.74385C57.8741 5.92603 57.9165 5.29221 57.9917 4.56506L58.0366 4.13118H60.7881C63.7749 4.13118 63.892 4.12404 64.3377 3.9147C64.5987 3.79205 64.716 3.69756 64.8503 3.50152C65.0563 3.20073 65.0966 3.01526 65.1179 2.27029L65.1375 1.58572L61.0084 1.58876C57.6883 1.59123 56.8319 1.60211 56.6372 1.64411ZM68.8961 1.83525C68.3703 4.83549 67.8372 10.3726 67.7803 13.4259C67.7599 14.5188 67.7652 14.7115 67.8214 14.9301C67.9916 15.592 68.3413 15.9866 68.9545 16.2085C69.1508 16.2795 69.2917 16.2942 69.9239 16.309L70.6636 16.3264L70.7106 14.558C70.7971 11.3036 70.971 8.40345 71.1867 6.61878C71.3189 5.52554 71.2832 5.56353 71.5479 6.23426C71.9336 7.21133 72.1414 7.80727 73.8414 12.8089C74.5007 14.7486 74.7575 15.2636 75.3202 15.7745C75.5699 16.0013 76.0051 16.2251 76.3027 16.28C76.4177 16.3012 76.7182 16.3185 76.9704 16.3185H77.429L77.5404 16.1546C77.8347 15.7213 78.2504 14.8273 78.5312 14.0237C78.6276 13.748 78.9802 12.6893 79.3148 11.6711C80.6565 7.58841 80.8939 6.88833 81.1262 6.33083C81.2592 6.01153 81.3811 5.76347 81.397 5.77955C81.4311 5.81422 81.5609 7.07245 81.6425 8.16148C81.792 10.1538 81.8874 11.9275 81.9345 13.5892C81.9775 15.1069 82.0258 15.3158 82.434 15.7507C82.6567 15.9879 82.8276 16.0978 83.1455 16.2079C83.3601 16.2823 83.4938 16.2952 84.2029 16.3103L85.0147 16.3275L84.9896 15.1563C84.9312 12.4348 84.594 7.23015 84.3216 4.84467C84.2078 3.84836 83.9254 3.05314 83.4997 2.53062C83.1298 2.07657 82.5472 1.73551 81.9575 1.62779C81.8308 1.60465 81.5489 1.58572 81.3309 1.58572H80.9346L80.7196 1.81651C80.3032 2.26335 79.7438 3.17848 79.3512 4.05516C79.0278 4.77702 78.8163 5.37933 77.8683 8.27718C76.8573 11.3676 76.7344 11.7533 76.6215 12.1918C76.5805 12.3509 76.5379 12.455 76.5269 12.4232C76.5158 12.3914 76.4358 12.1021 76.3489 11.7803C76.1889 11.1871 75.9062 10.3518 75.1701 8.29646C74.946 7.67071 74.5057 6.43847 74.1916 5.55817C73.8775 4.67787 73.572 3.8511 73.5126 3.72093C73.2775 3.20544 72.7963 2.64324 72.3136 2.32024C71.5593 1.81546 70.6955 1.58618 69.5473 1.58588L68.9399 1.58572L68.8961 1.83525ZM94.4151 3.97841C93.0283 4.19327 91.9889 5.15842 91.505 6.68045C91.3003 7.32418 91.2389 7.80581 91.2374 8.77856C91.236 9.73488 91.2776 10.1834 91.4327 10.8805C91.8255 12.6465 92.7701 13.6421 94.3048 13.908C94.7794 13.9903 95.6078 13.983 96.0479 13.8927C97.8438 13.5244 98.8422 11.9706 98.9252 9.41492C98.9796 7.73978 98.6646 6.36805 98.0036 5.40081C97.5325 4.71165 96.7632 4.2146 95.8901 4.03545C95.5163 3.95874 94.7366 3.92858 94.4151 3.97841ZM49.4599 20.1485C49.3446 20.2535 49.3191 20.3043 49.3156 20.4359C49.3103 20.6401 49.421 20.7936 49.6256 20.8655C49.7612 20.9131 49.7946 20.9119 49.9149 20.8552C50.1563 20.7414 50.246 20.4846 50.1254 20.2528C49.9864 19.9858 49.6897 19.9393 49.4599 20.1485ZM86.5149 20.0867C86.3859 20.175 86.3321 20.2505 86.3059 20.3801C86.2529 20.6424 86.5224 20.931 86.784 20.892C87.0582 20.8512 87.2404 20.5392 87.1361 20.289C87.0327 20.0408 86.7272 19.9413 86.5149 20.0867ZM91.8881 20.1521C91.78 20.2596 91.7562 20.3124 91.7562 20.4451C91.7562 20.8818 92.3124 21.0649 92.5354 20.7016C92.6552 20.5063 92.6345 20.3074 92.4781 20.1521C92.37 20.0446 92.3168 20.021 92.1831 20.021C92.0495 20.021 91.9963 20.0446 91.8881 20.1521ZM47.3401 20.1201C47.324 20.1363 47.311 20.5391 47.311 21.0152V21.881L47.1266 21.6859C46.8178 21.3591 46.3775 21.2328 45.8933 21.3322C45.1393 21.487 44.729 22.0101 44.6318 22.9404C44.5612 23.6171 44.7263 24.1487 45.1456 24.594C45.5494 25.0229 46.0345 25.1938 46.6242 25.1149C47.1732 25.0415 47.5142 24.829 47.7308 24.4251C47.9613 23.9954 47.9783 23.8554 47.999 22.2076C48.0094 21.3845 48.006 20.6328 47.9916 20.5371C47.9528 20.2798 47.8038 20.1316 47.561 20.1087C47.4555 20.0988 47.3561 20.1039 47.3401 20.1201ZM59.8391 20.1201C59.7938 20.1658 59.8045 23.9372 59.8507 24.2199C59.9364 24.7449 60.1649 24.9764 60.691 25.0712C61.1807 25.1594 61.4791 25.0098 61.4791 24.676V24.5043L61.1394 24.4878C60.7697 24.47 60.6315 24.4119 60.5535 24.2418C60.5217 24.1725 60.5086 23.6262 60.5084 22.3621C60.5083 21.3017 60.4926 20.5244 60.4697 20.4424C60.4132 20.2405 60.2744 20.1289 60.0538 20.1081C59.9517 20.0985 59.8551 20.1039 59.8391 20.1201ZM77.7433 21.0009V21.9037L77.5007 21.6637C77.2926 21.4579 77.2222 21.4138 77.0059 21.3541C76.372 21.1789 75.6423 21.4585 75.3249 21.9981C75.0744 22.4241 74.9622 23.2004 75.0796 23.6945C75.1695 24.0727 75.352 24.4029 75.6099 24.6536C76.0904 25.1208 76.6669 25.2427 77.3992 25.0322C77.837 24.9063 78.1248 24.59 78.3095 24.032C78.3718 23.8435 78.3813 23.6321 78.394 22.1355C78.4067 20.6352 78.4014 20.4379 78.3449 20.3294C78.2731 20.1914 78.0857 20.0981 77.8804 20.0981H77.7433V21.0009ZM83.8072 22.2493L83.8181 24.4006L83.9168 24.5923C84.0505 24.8522 84.2946 25.0133 84.6431 25.0717C84.957 25.1243 85.197 25.0836 85.3357 24.9542C85.4086 24.8861 85.429 24.8273 85.429 24.6858V24.5045L85.1088 24.486C84.9327 24.4759 84.7413 24.4453 84.6837 24.418C84.4613 24.3129 84.4586 24.2871 84.4586 22.2965C84.4586 20.7187 84.4505 20.4591 84.3974 20.348C84.3262 20.199 84.1404 20.0981 83.9372 20.0981H83.7962L83.8072 22.2493ZM89.1974 20.7322C88.8744 20.969 88.8447 21.1317 88.8457 22.6613C88.8461 23.3409 88.8636 24.0148 88.8845 24.1587C88.9786 24.8052 89.339 25.1139 90.0094 25.1224C90.5028 25.1285 90.7465 24.9484 90.7468 24.5771C90.7469 24.4196 90.7413 24.4105 90.6596 24.4375C90.6116 24.4534 90.415 24.4743 90.2228 24.484C89.9075 24.4999 89.8628 24.4934 89.7659 24.4177C89.5351 24.2373 89.5257 24.1866 89.5114 23.0419L89.4984 21.994L90.0289 21.9813L90.5594 21.9686L90.6726 21.8427C90.7619 21.7432 90.7857 21.6803 90.7857 21.5438V21.3708H90.1453H89.5048V21.0044C89.5048 20.6476 89.5025 20.6381 89.4153 20.6381C89.3661 20.6381 89.268 20.6804 89.1974 20.7322ZM35.085 21.3529C34.6459 21.4754 34.2854 21.8055 34.1073 22.2482C34.0226 22.4586 34.0174 22.5278 34.0048 23.595C33.9933 24.5775 33.9996 24.7355 34.055 24.8419C34.1266 24.9793 34.3141 25.0733 34.5168 25.0733H34.6511L34.6636 23.8102L34.6761 22.5472L34.782 22.333C34.9444 22.0042 35.2998 21.8514 35.6709 21.9507C35.9204 22.0175 36.052 22.1289 36.1658 22.3701C36.2667 22.5837 36.2678 22.5961 36.287 23.713L36.3064 24.8403L36.4106 24.9438C36.4914 25.024 36.5628 25.0512 36.728 25.0648L36.9413 25.0824L36.9538 23.7955C36.9656 22.5792 36.9708 22.4989 37.0487 22.3315C37.1477 22.1189 37.2967 22.0055 37.5525 21.9482C37.9723 21.854 38.2959 21.9914 38.4553 22.3316C38.5552 22.5448 38.5565 22.5596 38.5764 23.6937L38.5966 24.8403L38.7008 24.9438C38.7819 25.0243 38.8529 25.0512 39.0211 25.0651L39.2371 25.0829L39.2368 23.9114C39.2364 22.6057 39.2098 22.3461 39.0405 21.9996C38.8112 21.5303 38.4324 21.314 37.8389 21.3134C37.5431 21.313 37.4807 21.3264 37.2494 21.4395C37.0836 21.5206 36.9271 21.6363 36.8135 21.7619C36.7161 21.8696 36.6363 21.9409 36.6363 21.9204C36.6363 21.8323 36.3061 21.5212 36.1131 21.4273C35.8458 21.2974 35.3998 21.2652 35.085 21.3529ZM41.7254 21.3523C41.4063 21.4413 41.1541 21.5951 40.9261 21.8397C40.6855 22.098 40.5348 22.3919 40.4577 22.753C40.1531 24.1812 41.0934 25.2839 42.4702 25.1129C43.0932 25.0355 43.3905 24.7966 43.3905 24.3734C43.3905 24.2492 43.3799 24.1477 43.3669 24.1477C43.354 24.1477 43.2931 24.1897 43.2317 24.2411C43.0188 24.4191 42.7108 24.5058 42.2842 24.5078C42.0059 24.5092 41.8548 24.4917 41.7505 24.4464C41.4131 24.2996 41.1825 24.0317 41.1078 23.6996L41.072 23.5407L41.8722 23.52C43.001 23.4909 43.3015 23.3931 43.4774 22.998C43.5813 22.7646 43.5589 22.3504 43.4278 22.0813C43.1444 21.4996 42.3762 21.1706 41.7254 21.3523ZM53.1125 21.3475C52.7839 21.4268 52.5436 21.5662 52.2788 21.8312C51.6682 22.4421 51.5211 23.3838 51.9154 24.1569C52.0616 24.4435 52.4397 24.804 52.7453 24.9482C53.6032 25.3528 54.5697 25.041 54.5697 24.3596C54.5697 24.2074 54.5216 24.1622 54.4505 24.2474C54.2976 24.4305 53.7602 24.5554 53.3858 24.4948C52.8528 24.4086 52.4907 24.0171 52.3914 23.4196C52.2896 22.8074 52.5271 22.2961 53.0346 22.0346C53.1983 21.9503 53.2816 21.9337 53.541 21.9339C53.9074 21.9342 54.1741 22.032 54.3781 22.2412C54.4492 22.314 54.5213 22.3736 54.5385 22.3736C54.5838 22.3736 54.5763 22.0713 54.5266 21.8915C54.402 21.4408 53.7557 21.1922 53.1125 21.3475ZM56.6763 21.3318C56.2812 21.4154 55.9362 21.6461 55.8266 21.8999C55.7641 22.0446 55.7544 22.4122 55.813 22.4122C55.8351 22.4122 55.8627 22.3872 55.8744 22.3568C55.9154 22.2508 56.2982 22.0283 56.5484 21.9652C56.8761 21.8826 57.339 21.9049 57.5239 22.0123C57.7347 22.1346 57.8303 22.3092 57.8303 22.5721V22.7978L57.4712 22.7992C56.7483 22.8019 56.2724 22.9439 55.958 23.2508C55.7418 23.4617 55.6432 23.7115 55.6463 24.0399C55.653 24.7425 56.442 25.2391 57.3519 25.1134C57.7532 25.0579 57.9928 24.946 58.1998 24.7172C58.4632 24.4261 58.4902 24.2907 58.4902 23.2577C58.4902 22.4866 58.4808 22.3514 58.4114 22.1284C58.3074 21.7938 58.0617 21.5348 57.7318 21.4122C57.4713 21.3153 56.9439 21.2751 56.6763 21.3318ZM65.2456 21.3529C64.8065 21.4754 64.446 21.8055 64.2679 22.2482C64.1833 22.4586 64.178 22.5278 64.1655 23.595C64.1539 24.5775 64.1603 24.7355 64.2156 24.8419C64.2872 24.9793 64.4747 25.0733 64.6774 25.0733H64.8117L64.8242 23.8102L64.8367 22.5472L64.9426 22.333C65.1051 22.0042 65.4605 21.8514 65.8315 21.9507C66.0811 22.0175 66.2126 22.1289 66.3264 22.3701C66.4273 22.5837 66.4284 22.5961 66.4476 23.713L66.467 24.8403L66.5713 24.9438C66.6524 25.0243 66.7233 25.0512 66.8915 25.0651L67.1075 25.0829V23.9263C67.1075 23.2902 67.1253 22.6767 67.147 22.563C67.2304 22.126 67.472 21.9349 67.9429 21.9332C68.3081 21.9319 68.4749 22.0307 68.6159 22.3316C68.7158 22.5448 68.7172 22.5596 68.7371 23.6937L68.7572 24.8403L68.8614 24.9438C68.9426 25.0243 69.0135 25.0512 69.1817 25.0651L69.3977 25.0829L69.3974 23.9114C69.3971 22.6057 69.3704 22.3461 69.2011 21.9996C68.9718 21.5303 68.5931 21.314 67.9995 21.3134C67.7037 21.313 67.6414 21.3264 67.41 21.4395C67.2443 21.5206 67.0878 21.6363 66.9742 21.7619C66.8767 21.8696 66.797 21.9409 66.797 21.9204C66.797 21.8323 66.4667 21.5212 66.2737 21.4273C66.0065 21.2974 65.5605 21.2652 65.2456 21.3529ZM71.9596 21.3371C71.4732 21.4155 70.977 21.7908 70.7722 22.2353C70.4971 22.8324 70.497 23.6814 70.772 24.2159C71.1202 24.8927 71.869 25.2507 72.6137 25.0964C73.4641 24.9202 73.937 24.2369 73.9387 23.182C73.9396 22.5821 73.8014 22.1782 73.4728 21.821C73.2444 21.5727 72.9773 21.4235 72.6304 21.3504C72.3376 21.2888 72.2679 21.2875 71.9596 21.3371ZM80.6262 21.3318C80.2461 21.4123 79.9049 21.638 79.7855 21.8879C79.7214 22.0221 79.6981 22.4122 79.7542 22.4122C79.7713 22.4122 79.8432 22.3529 79.9138 22.2805C79.9845 22.2081 80.1495 22.0999 80.2805 22.0401C80.4932 21.9431 80.5623 21.9314 80.9263 21.9308C81.2728 21.9302 81.3578 21.9428 81.4935 22.0149C81.6818 22.115 81.7674 22.2707 81.804 22.5797L81.8297 22.7978L81.446 22.7992C80.7345 22.8017 80.265 22.9299 79.958 23.2055C79.7312 23.409 79.6367 23.6109 79.6152 23.9371C79.6006 24.1593 79.6131 24.2451 79.6842 24.4093C79.9039 24.9167 80.5847 25.2125 81.3042 25.1131C81.8483 25.0379 82.2083 24.7903 82.3696 24.3803C82.4419 24.1964 82.4558 24.0682 82.4703 23.4507C82.4803 23.0213 82.4694 22.6196 82.4431 22.4479C82.33 21.7112 81.905 21.3461 81.1204 21.3116C80.9389 21.3036 80.7165 21.3127 80.6262 21.3318ZM95.4478 21.3548C94.7659 21.537 94.3076 22.0871 94.1704 22.8882C94.1172 23.1993 94.1147 23.305 94.1543 23.5754C94.3083 24.625 95.1524 25.2592 96.2022 25.1141C96.6862 25.0473 96.9867 24.882 97.0985 24.6214C97.1515 24.4978 97.1713 24.2186 97.13 24.1776C97.1181 24.1658 97.0093 24.2153 96.8882 24.2878C96.5941 24.4637 96.4222 24.507 96.0066 24.5098C95.6087 24.5125 95.3688 24.4306 95.1382 24.2132C94.9948 24.0781 94.8237 23.7545 94.8231 23.6174C94.8227 23.5311 94.826 23.5306 95.434 23.5298C96.4305 23.5286 96.8561 23.4395 97.0888 23.1835C97.2469 23.0097 97.2854 22.8543 97.2595 22.4955C97.2003 21.6758 96.3202 21.1216 95.4478 21.3548ZM99.3468 21.3556C98.747 21.4997 98.3442 21.9484 98.3464 22.47C98.3474 22.7389 98.3849 22.8512 98.5307 23.0235C98.6818 23.2018 98.8738 23.2865 99.4595 23.4331C100.213 23.6217 100.309 23.6876 100.309 24.0192C100.309 24.3561 100.089 24.5021 99.5788 24.5045C99.1966 24.5062 98.8956 24.4239 98.6268 24.2442C98.5158 24.1699 98.4179 24.1091 98.4094 24.1091C98.3627 24.1091 98.4061 24.4986 98.4678 24.6336C98.633 24.995 99.2052 25.198 99.8194 25.1131C100.337 25.0415 100.687 24.8282 100.859 24.4784C101.077 24.0358 101.017 23.5904 100.7 23.3003C100.486 23.1043 100.314 23.0292 99.7763 22.898C99.3219 22.7871 99.0772 22.6829 99.0391 22.5842C98.985 22.4442 99.0165 22.2619 99.1148 22.1459C99.2407 21.9972 99.4492 21.9377 99.8494 21.9364C100.206 21.9351 100.484 22.0133 100.716 22.1804C100.889 22.3048 100.917 22.2972 100.917 22.1259C100.917 21.5052 100.196 21.1515 99.3468 21.3556ZM49.4071 22.8052C49.4071 24.4699 49.4179 24.5461 49.6923 24.8189C49.8814 25.0068 50.1234 25.0926 50.4639 25.0926C50.7537 25.0926 50.866 24.9918 50.9045 24.6973L50.9309 24.4948H50.6892C50.5494 24.4948 50.393 24.4691 50.3184 24.434C50.0787 24.3209 50.0669 24.2519 50.0669 22.9547C50.0669 21.723 50.0548 21.6272 49.8786 21.4713C49.8303 21.4285 49.7153 21.3904 49.6015 21.3796L49.4071 21.361V22.8052ZM86.3994 22.8052C86.3994 24.4699 86.4102 24.5461 86.6847 24.8189C86.8745 25.0074 87.1159 25.0926 87.4606 25.0926C87.6607 25.0926 87.6981 25.08 87.7808 24.9844C87.8525 24.9015 87.8745 24.8315 87.8745 24.6855V24.4948H87.6597C87.5416 24.4948 87.3838 24.4694 87.309 24.4383C87.0721 24.34 87.0593 24.2638 87.0593 22.9521C87.0593 21.7232 87.0471 21.6272 86.871 21.4713C86.8227 21.4285 86.7076 21.3904 86.5939 21.3796L86.3994 21.361V22.8052ZM91.8338 22.7574C91.8338 23.5899 91.8503 24.2202 91.875 24.3348C91.9697 24.7736 92.2853 25.0411 92.7739 25.0969C93.1599 25.141 93.3476 24.9886 93.3476 24.631V24.4948L93.105 24.4942C92.8301 24.4936 92.7115 24.4461 92.5944 24.2896C92.5167 24.1856 92.5122 24.1241 92.4937 22.9078L92.4743 21.6348L92.3293 21.5028C92.209 21.3933 92.1544 21.3708 92.0091 21.3708H91.8338V22.7574ZM41.6631 21.9829C41.3451 22.1273 41.0615 22.5627 41.0615 22.9066V23.0014L41.8087 22.9821C42.6078 22.9614 42.7981 22.9221 42.8857 22.7597C42.9955 22.5556 42.8063 22.14 42.5401 22.0005C42.3202 21.8852 41.8971 21.8768 41.6631 21.9829ZM45.9479 21.9615C45.4721 22.1389 45.2703 22.5482 45.3 23.2753C45.3136 23.6093 45.3321 23.6979 45.428 23.8895C45.5522 24.1376 45.7704 24.3554 45.9858 24.4461C46.1467 24.514 46.6147 24.5237 46.7729 24.4625C46.9493 24.3942 47.1478 24.19 47.2211 24.0013C47.3205 23.7452 47.3219 22.8649 47.2233 22.5845C47.1371 22.3392 46.9595 22.1238 46.7603 22.0228C46.5616 21.9221 46.1391 21.8902 45.9479 21.9615ZM76.3742 21.9596C76.0311 22.0712 75.8051 22.3817 75.722 22.8553C75.601 23.5459 75.8788 24.2078 76.3826 24.4292C76.6321 24.5389 77.0265 24.5311 77.2686 24.4117C77.6064 24.2452 77.7182 23.9705 77.7211 23.2992C77.7251 22.3932 77.4358 21.9775 76.7683 21.9296C76.6256 21.9194 76.4585 21.9321 76.3742 21.9596ZM95.3865 21.9884C95.0633 22.1526 94.859 22.4523 94.8112 22.832L94.7898 23.0012L95.5341 22.9796C96.3169 22.9568 96.5432 22.9186 96.6078 22.7987C96.7228 22.5853 96.585 22.2046 96.3328 22.0387C96.191 21.9455 96.1233 21.9286 95.8542 21.92C95.6017 21.9119 95.5108 21.9252 95.3865 21.9884ZM71.7734 22.0314C71.3599 22.2348 71.1433 22.8566 71.258 23.5111C71.3701 24.1507 71.7405 24.4936 72.3202 24.4944C72.7333 24.495 72.9891 24.3269 73.1705 23.9356C73.2491 23.7661 73.2598 23.6843 73.2585 23.2606C73.2572 22.852 73.2435 22.745 73.1688 22.558C73.0669 22.3031 72.8074 22.0499 72.5854 21.9886C72.3385 21.9204 71.9584 21.9405 71.7734 22.0314ZM56.7753 23.4221C56.6968 23.4428 56.5679 23.5153 56.489 23.5831C56.3669 23.688 56.343 23.7348 56.3288 23.8981C56.2947 24.2901 56.5789 24.5113 57.1152 24.5103C57.6645 24.5092 57.8163 24.353 57.8563 23.7476L57.8808 23.3764L57.3995 23.3803C57.1347 23.3825 56.8539 23.4013 56.7753 23.4221ZM80.7708 23.4124C80.3327 23.5448 80.1463 23.8937 80.3427 24.2136C80.4657 24.4142 80.6975 24.5103 81.0621 24.5122C81.6124 24.5149 81.7862 24.3349 81.8125 23.7348L81.8283 23.3764L81.3482 23.3797C81.0841 23.3815 80.8243 23.3962 80.7708 23.4124Z" fill="#121212"/>
<path d="M6.89404 5.11213C8.58618 2.16422 11.6153 0.265044 15.0118 0.0225319C16.4658 -0.0812917 18.0866 0.176686 19.4838 0.734411C22.9354 2.11204 25.3684 5.30227 25.77 8.97702C25.8445 9.65804 25.8065 11.2582 25.709 11.5523C25.6985 11.5838 25.5978 11.3669 25.4852 11.0702C24.578 8.67997 22.9116 6.80154 20.6796 5.65338C19.3574 4.97325 18.0478 4.61704 16.5726 4.53632C13.3802 4.36157 10.3339 5.6729 8.29137 8.10111C7.23373 9.35849 6.44704 10.969 6.15308 12.4785C6.04967 13.0094 6.05095 13.0052 6.01644 12.9408C5.9687 12.8518 5.7922 12.1119 5.72675 11.7265C5.56524 10.7752 5.54792 9.50898 5.68424 8.62177C5.87212 7.3991 6.30927 6.13085 6.89404 5.11213Z" fill="#121212"/>
<path d="M9.13525 1.22715C9.14689 1.21554 9.3185 1.18542 9.51659 1.16016C9.87987 1.1138 9.96395 1.11962 9.85728 1.18368C9.47995 1.41027 9.26657 1.52948 9.25733 1.51891C9.21114 1.46611 9.11824 1.24404 9.13525 1.22715Z" fill="#121212"/>
<path d="M7.77364 1.53866C7.78664 1.52574 7.90705 1.48362 8.04124 1.44506C8.40337 1.34096 8.45316 1.35496 8.60148 1.60249C8.67139 1.71915 8.72926 1.83374 8.73008 1.85711C8.73167 1.90208 8.2953 2.25856 8.23994 2.25752C8.19309 2.25667 7.74549 1.56662 7.77364 1.53866Z" fill="#121212"/>
<path d="M6.40305 2.07845C6.40333 2.06063 6.52999 1.99079 6.68448 1.92329C6.83901 1.8558 6.9945 1.79937 7.03002 1.79795C7.08786 1.7956 7.76118 2.60023 7.76118 2.67173C7.76118 2.68697 7.66306 2.79796 7.54311 2.91841L7.32499 3.13736L6.86382 2.62414C6.61015 2.34187 6.40282 2.09631 6.40305 2.07845Z" fill="#121212"/>
<path d="M5.08542 2.8265C5.08398 2.81031 5.21818 2.7108 5.38365 2.60544C5.54913 2.50003 5.6969 2.41348 5.71207 2.4131C5.72725 2.41271 6.01043 2.67416 6.34135 2.99412L6.943 3.57583L6.76013 3.82174C6.65956 3.95699 6.5631 4.06834 6.54578 4.06923C6.50549 4.07123 5.08891 2.86577 5.08542 2.8265Z" fill="#121212"/>
<path d="M3.86662 3.8001C3.84884 3.78429 3.97111 3.65667 4.13833 3.51652C4.30551 3.37636 4.45295 3.26587 4.46595 3.27096C4.55177 3.30451 6.20516 4.56058 6.20419 4.59147C6.20202 4.66286 5.90745 5.09292 5.86669 5.08421C5.82807 5.07591 3.9333 3.85942 3.86662 3.8001Z" fill="#121212"/>
<path d="M2.78762 4.93966C2.78684 4.92554 2.89491 4.785 3.02778 4.62737C3.16061 4.46975 3.28568 4.34078 3.30571 4.34078C3.34037 4.34078 5.5353 5.55851 5.59799 5.6125C5.61445 5.6267 5.57241 5.76323 5.50456 5.91584C5.40593 6.13772 5.36747 6.18905 5.31281 6.17181C5.17319 6.1278 2.7889 4.96442 2.78762 4.93966Z" fill="#121212"/>
<path d="M1.89336 6.26017C1.90047 6.23336 1.99319 6.06845 2.09947 5.89366L2.29266 5.57583L2.43591 5.63568C2.5147 5.66862 3.14683 5.92162 3.84068 6.19792C4.53453 6.47418 5.11876 6.71604 5.13902 6.73528C5.18716 6.78118 5.01714 7.31059 4.95441 7.31013C4.92899 7.30997 4.22691 7.08459 3.39429 6.80933C2.37282 6.47163 1.88463 6.29303 1.89336 6.26017Z" fill="#121212"/>
<path d="M19.6232 6.40414C19.5342 6.27687 19.4479 6.15106 19.4315 6.12453C19.3774 6.03725 19.4844 6.07288 19.9715 6.30437C23.1764 7.82763 25.3297 10.8576 25.6974 14.3614C25.7641 14.9967 25.7241 16.3807 25.6219 16.9738C25.251 19.1264 24.3056 20.9574 22.7845 22.4687C21.2059 24.037 19.317 24.9865 17.0966 25.3277C16.4438 25.4281 15.0882 25.4487 14.4521 25.368C12.179 25.0798 10.1208 24.0951 8.52855 22.5342C8.15665 22.1696 7.51488 21.4266 7.54555 21.3962C7.55494 21.3868 7.68157 21.424 7.8269 21.4788C8.38143 21.6878 9.13009 21.8809 9.79906 21.9875C10.3225 22.0708 11.7816 22.1047 12.3485 22.0467C17.1034 21.5595 20.8529 17.834 21.3498 13.103C21.4185 12.4493 21.3776 11.0388 21.273 10.4537C21.0055 8.95727 20.443 7.57663 19.6232 6.40414Z" fill="#121212"/>
<path d="M1.228 7.81143C1.21073 7.79646 1.26108 7.61689 1.33987 7.41237C1.43455 7.16654 1.50321 7.0405 1.54246 7.0405C1.63088 7.0405 4.78653 7.85686 4.82333 7.88926C4.86505 7.92601 4.75944 8.48821 4.71197 8.48189C4.45197 8.44733 1.25091 7.83129 1.228 7.81143Z" fill="#121212"/>
<path d="M0.807777 9.42849C0.778432 9.41048 0.792215 9.27746 0.853119 8.99048L0.940598 8.57831L1.08058 8.60052C1.15756 8.61275 1.99568 8.71726 2.94312 8.83285C3.89052 8.9484 4.67222 9.04945 4.68021 9.05739C4.68821 9.06534 4.68324 9.20722 4.66915 9.37276L4.64353 9.6737L4.32947 9.65226C4.15669 9.64045 3.30311 9.59109 2.43265 9.54257C1.56214 9.49405 0.830951 9.44272 0.807777 9.42849Z" fill="#121212"/>
<path d="M0.680573 10.2609L2.30917 10.2403C3.20487 10.229 4.09493 10.2203 4.28707 10.221L4.63643 10.2223L4.66527 10.5099C4.68114 10.6681 4.68114 10.8089 4.66527 10.8229C4.64365 10.8419 0.804939 11.1351 0.648003 11.1297C0.611981 11.1284 0.616603 10.4895 0.653595 10.3573L0.680573 10.2609Z" fill="#121212"/>
<path d="M0.657707 11.9547L2.58884 11.681C3.65095 11.5305 4.57366 11.4053 4.63922 11.403C4.75804 11.3986 4.75866 11.3997 4.80214 11.6782C4.82613 11.8321 4.83358 11.9691 4.81871 11.9829C4.79185 12.0077 0.88905 12.8256 0.797287 12.8256C0.752687 12.8256 0.657707 12.2968 0.657707 12.0483V11.9547Z" fill="#121212"/>
<path d="M0.939514 13.6531C0.944638 13.649 1.84841 13.3938 2.9479 13.0858C4.04738 12.7779 4.9557 12.5241 4.96637 12.5218C4.98384 12.5181 5.16162 13.107 5.1471 13.1206C5.09544 13.169 1.22315 14.4823 1.20079 14.459C1.16873 14.4255 0.922629 13.6665 0.939514 13.6531Z" fill="#121212"/>
<path d="M1.51948 15.2734C1.52802 15.2648 2.39006 14.8946 3.43509 14.4506C4.48011 14.0065 5.34235 13.6501 5.35116 13.6585C5.401 13.7061 5.58223 14.1957 5.55809 14.2175C5.54221 14.2318 4.71546 14.6534 3.72086 15.1544L1.9125 16.0651L1.70821 15.677C1.59583 15.4635 1.5109 15.2819 1.51948 15.2734Z" fill="#121212"/>
<path d="M2.38506 16.7331C2.4064 16.7255 3.18371 16.2701 4.1124 15.721C5.0411 15.1718 5.81453 14.7255 5.8311 14.729C5.84768 14.7325 5.91237 14.8243 5.97486 14.9331L6.08848 15.1307L4.43151 16.219L2.77454 17.3073L2.66578 17.178C2.4717 16.9473 2.34535 16.747 2.38506 16.7331Z" fill="#121212"/>
<path d="M3.29795 17.9348L4.84057 16.7699C5.68903 16.1292 6.38602 15.6044 6.38947 15.6037C6.42464 15.5969 6.75214 16.1186 6.72722 16.1417C6.54404 16.3115 3.93505 18.5336 3.91879 18.5336C3.90687 18.5336 3.76227 18.3989 3.59753 18.2342L3.29795 17.9348Z" fill="#121212"/>
<path d="M4.5588 19.0778L5.8201 17.8222C6.51383 17.1317 7.09722 16.5667 7.11648 16.5667C7.13577 16.5667 7.24212 16.6657 7.35283 16.7867L7.55409 17.0068L6.48854 18.2041C5.90245 18.8626 5.3854 19.4403 5.33955 19.4879L5.25618 19.5745L5.02394 19.422C4.89619 19.3381 4.7393 19.2263 4.67525 19.1736L4.5588 19.0778Z" fill="#121212"/>
<path d="M6.2986 19.5428C6.47622 19.3165 6.92223 18.7452 7.28971 18.2733C7.65719 17.8013 7.96719 17.4152 7.97856 17.4152C7.98997 17.4152 8.10188 17.5049 8.22726 17.6146L8.45527 17.8139L7.61752 19.0512C7.15676 19.7317 6.76552 20.3042 6.74809 20.3234C6.71692 20.3579 5.97561 20.0268 5.97561 19.9784C5.97561 19.9651 6.12093 19.7691 6.2986 19.5428Z" fill="#121212"/>
<path d="M7.50859 20.5837C7.53017 20.5279 8.73668 18.4496 8.87029 18.2382C8.9228 18.155 8.92374 18.1553 9.19375 18.3297L9.4645 18.5047L8.8664 19.6927L8.26832 20.8807L8.12151 20.8426C7.67349 20.7263 7.48437 20.6465 7.50859 20.5837Z" fill="#121212"/>
<path d="M9.06305 21.0356C9.04558 21.0182 9.88787 18.9505 9.96049 18.8325C9.98654 18.7902 9.99 18.7913 10.2886 18.9407C10.4453 19.0192 10.5555 19.0976 10.5459 19.1239C10.5367 19.1493 10.384 19.5952 10.2066 20.1149C10.0292 20.6346 9.86489 21.0797 9.84152 21.1041C9.80954 21.1375 9.71094 21.1372 9.44221 21.1031C9.24592 21.0781 9.07532 21.0478 9.06305 21.0356Z" fill="#121212"/>
<path d="M10.6043 21.1485C10.6165 21.1171 10.7361 20.6891 10.8701 20.1973C11.0175 19.6565 11.1301 19.3101 11.1551 19.3207C11.1779 19.3302 11.3143 19.3774 11.4585 19.4255C11.6463 19.4882 11.7205 19.5318 11.7205 19.5793C11.7205 19.6766 11.4196 21.1209 11.394 21.1463C11.3821 21.1582 11.1946 21.1764 10.9773 21.1868C10.6392 21.203 10.5854 21.1974 10.6043 21.1485Z" fill="#121212"/>
<path d="M12.1602 21.066C12.1361 21.042 12.2966 19.7747 12.3312 19.7162C12.3417 19.6984 12.3876 19.6938 12.4333 19.706C12.4789 19.7181 12.619 19.7484 12.7446 19.7733L12.9729 19.8184L12.9455 20.3619C12.9305 20.6609 12.9048 20.9192 12.8885 20.9359C12.8477 20.9776 12.1896 21.0952 12.1602 21.066Z" fill="#121212"/>
<path d="M13.6322 20.761C13.5952 20.7745 13.5837 20.6769 13.5837 20.3504V19.922H13.6944C13.7554 19.922 13.9107 19.933 14.0396 19.9464L14.274 19.9707L14.2923 20.226C14.3038 20.3857 14.2945 20.4976 14.2674 20.5249C14.2436 20.5489 14.1019 20.6079 13.9524 20.6559C13.803 20.7039 13.6589 20.7512 13.6322 20.761Z" fill="#121212"/>
<path d="M15.2451 20.1352C14.9446 20.2783 14.9052 20.2704 14.904 20.0667L14.9035 19.9606H15.214C15.3848 19.9606 15.5245 19.97 15.5245 19.9814C15.5245 19.9929 15.3988 20.062 15.2451 20.1352Z" fill="#121212"/>
</svg>
